<svg xmlns="http://www.w3.org/2000/svg" version="1.1" xmlns:xlink="http://www.w3.org/1999/xlink" xmlns:svgjs="http://svgjs.dev/svgjs" width="1500" height="1500" viewBox="0 0 1500 1500"><rect width="1500" height="1500" fill="#ffffff"></rect><g transform="matrix(0.6666666666666666,0,0,0.6666666666666666,249.39393939393938,574.0763975493531)"><svg viewBox="0 0 396 139" data-background-color="#ffffff" preserveAspectRatio="xMidYMid meet" height="526" width="1500" xmlns="http://www.w3.org/2000/svg" xmlns:xlink="http://www.w3.org/1999/xlink"><g id="tight-bounds" transform="matrix(1,0,0,1,0.2400000000000091,0.23397549612141688)"><svg viewBox="0 0 395.52 138.53204900775717" height="138.53204900775717" width="395.52"><g><svg viewBox="0 0 670.4681844240965 234.83346324529967" height="138.53204900775717" width="395.52"><g transform="matrix(1,0,0,1,274.9481844240966,32.455276034625356)"><svg viewBox="0 0 395.52 169.92291117604896" height="169.92291117604896" width="395.52"><g id="textblocktransform"><svg viewBox="0 0 395.52 169.92291117604896" height="169.92291117604896" width="395.52" id="textblock"><g><svg viewBox="0 0 395.52 169.92291117604896" height="169.92291117604896" width="395.52"><g transform="matrix(1,0,0,1,0,0)"><svg width="395.52" viewBox="-0.45 -35.25 113.34625 48.7" height="169.92291117604896" data-palette-color="url(#12e018f5-7bab-48e0-9e30-2b10f375671c)"><g class="wordmark-text-0" data-fill-palette-color="primary" id="text-0"></g></svg></g></svg></g></svg></g></svg></g><g><svg viewBox="0 0 234.8334632452997 234.83346324529967" height="234.83346324529967" width="234.8334632452997"><g><svg></svg></g><g id="icon-0"><svg viewBox="0 0 234.8334632452997 234.83346324529967" height="234.83346324529967" width="234.8334632452997"><g></g><g transform="matrix(1,0,0,1,46.96669264905995,60.75607439992294)"><svg viewBox="0 0 140.9000779471798 113.3213144454538" height="113.3213144454538" width="140.9000779471798"><g><svg xmlns="http://www.w3.org/2000/svg" xmlns:xlink="http://www.w3.org/1999/xlink" version="1.1" x="0" y="0" viewBox="0 9.786 100.00034525290005 80.42699999999999" enable-background="new 0 0 100 100" xml:space="preserve" id="dxe-0" width="140.9000779471798" height="113.3213144454538" class="icon-dxe-0" data-fill-palette-color="quaternary"><path d="M49.942 52.994L90.595 51.529C88.068 47.352 87.436 43.698 82.606 43.068 75.377 42.128 68.148 41.185 60.918 40.242L18.843 34.762C20.101 36.792 39.724 53.361 49.942 52.994" fill="#ffffff" data-fill-palette-color="quaternary"></path><path d="M0 9.786C4.391 17.043 26.615 32.858 32.953 33.672 50.283 35.903 67.61 38.132 84.939 40.36 81.546 34.753 80.759 31.01 74.627 29.401L47.91 22.378C31.94 18.182 15.97 13.984 0 9.786" fill="#ffffff" data-fill-palette-color="quaternary"></path><path d="M63.108 66.207L94.349 59.547C92.321 56.201 92.315 54.188 88.522 54.358 82.364 54.631 76.208 54.907 70.051 55.18 58.708 55.686 47.365 56.194 36.023 56.698 37.298 58.064 54.94 67.947 63.108 66.207" fill="#ffffff" data-fill-palette-color="quaternary"></path><path d="M87.682 90.213C93.407 86.494 94.944 82.492 98.201 76.406 101.852 69.582 99.458 68.562 95.38 61.81 94.963 61.122 89.538 62.042 88.927 62.714 88.182 63.532 88.679 68.169 88.633 69.21z" fill="#ffffff" data-fill-palette-color="quaternary"></path><path d="M86.35 63.447C82.555 64.256 77.746 63.638 76.778 67.676L72.658 84.887C81.904 82.678 86.028 71.582 86.35 63.447" fill="#ffffff" data-fill-palette-color="quaternary"></path><path d="M74.666 66.121C65.518 68.074 65.71 70.732 61.787 79.301 68.007 78.711 73.811 71.941 74.666 66.121" fill="#ffffff" data-fill-palette-color="quaternary"></path></svg></g></svg></g></svg></g></svg></g></svg></g><defs></defs><mask id="9290b675-e8d2-4376-b8c1-a1a7467697fa"><g id="SvgjsG3296"><svg viewBox="0 0 395.52 138.53204900775717" height="138.53204900775717" width="395.52"><g><svg viewBox="0 0 670.4681844240965 234.83346324529967" height="138.53204900775717" width="395.52"><g transform="matrix(1,0,0,1,274.9481844240966,32.455276034625356)"><svg viewBox="0 0 395.52 169.92291117604896" height="169.92291117604896" width="395.52"><g id="SvgjsG3295"><svg viewBox="0 0 395.52 169.92291117604896" height="169.92291117604896" width="395.52" id="SvgjsSvg3294"><g><svg viewBox="0 0 395.52 169.92291117604896" height="169.92291117604896" width="395.52"><g transform="matrix(1,0,0,1,0,0)"><svg width="395.52" viewBox="-0.45 -35.25 113.34625 48.7" height="169.92291117604896" data-palette-color="url(#12e018f5-7bab-48e0-9e30-2b10f375671c)"><g class="wordmark-text-0" data-fill-palette-color="primary" id="SvgjsG3293"><path d="M5.55-6.95L5.55-32.5 1.7-33.5Q1.55-34.45 1.95-35.25L1.95-35.25Q3.3-35.2 4.98-35.1 6.65-35 8.05-35L8.05-35Q9.5-35 11.5-35.1 13.5-35.2 14.9-35.25L14.9-35.25Q15.05-34.3 14.8-33.5L14.8-33.5Q13.8-33.35 12.8-33.15 11.8-32.95 10.8-32.5L10.8-32.5 10.8-6.95Q10.8-2.55 8.25 0.38 5.7 3.3 0.55 5.3L0.55 5.3Q0.2 5.25-0.13 4.83-0.45 4.4-0.45 4.05L-0.45 4.05Q5.55 0.95 5.55-6.95L5.55-6.95ZM23.35-13.5L23.35-12.5Q23.35-7.45 25.37-4.67 27.4-1.9 30.9-1.9L30.9-1.9Q32.45-1.9 33.5-2.08 34.55-2.25 35.57-2.75 36.6-3.25 37.9-4.15L37.9-4.15Q38.7-3.8 38.8-2.95L38.8-2.95Q37.25-1.15 35.1-0.15 32.95 0.85 30.75 0.85L30.75 0.85Q26.95 0.85 24.1-0.75 21.25-2.35 19.65-5.35 18.05-8.35 18.05-12.5L18.05-12.5Q18.05-16.75 19.72-19.73 21.4-22.7 24.22-24.28 27.05-25.85 30.5-25.85L30.5-25.85Q34.95-25.85 37.07-22.88 39.2-19.9 39.2-15.2L39.2-15.2Q39.2-14.85 39.2-14.55 39.2-14.25 39.15-13.9L39.15-13.9 38.45-13.35 23.35-13.5ZM30.45-23.7L30.45-23.7Q29-23.7 27.57-22.8 26.15-21.9 25.05-20.1 23.95-18.3 23.55-15.55L23.55-15.55 34.45-16.15Q34.45-20 33.62-21.85 32.8-23.7 30.45-23.7ZM45.9-7.5L46.4-2.2Q47.45-1.7 48.52-1.5 49.59-1.3 50.95-1.3L50.95-1.3Q53-1.3 54.59-2.2 56.2-3.1 56.2-5.1L56.2-5.1Q56.2-6.15 55.62-7.05 55.05-7.95 53.62-8.9 52.2-9.85 49.55-11.05L49.55-11.05Q46.65-12.4 45.05-14.18 43.45-15.95 43.45-19.1L43.45-19.1Q43.45-21.65 44.72-23.13 46-24.6 48.02-25.25 50.05-25.9 52.3-25.9L52.3-25.9Q54.25-25.9 56.17-25.53 58.09-25.15 59.59-24.5L59.59-24.5Q59.59-24.25 59.62-23.95 59.64-23.65 59.64-23.4L59.64-23.4Q59.64-20.35 58.7-17.65L58.7-17.65Q58.5-17.6 58.32-17.57 58.14-17.55 57.95-17.55L57.95-17.55Q57.2-17.55 56.45-17.85L56.45-17.85 55.65-23.25Q55-23.45 54.15-23.58 53.3-23.7 52.45-23.7L52.45-23.7Q51.3-23.7 50.17-23.38 49.05-23.05 48.32-22.28 47.59-21.5 47.59-20.1L47.59-20.1Q47.59-19.15 48.02-18.3 48.45-17.45 49.72-16.53 51-15.6 53.55-14.35L53.55-14.35Q57.55-12.45 59.17-10.68 60.8-8.9 60.8-6.25L60.8-6.25Q60.8-3.7 59.45-2.1 58.09-0.5 55.92 0.25 53.75 1 51.3 1L51.3 1Q48.95 1 46.92 0.63 44.9 0.25 42.84-1L42.84-1 42.84-1.85Q42.84-3.2 43.02-4.63 43.2-6.05 43.74-7.7L43.74-7.7Q44.05-7.75 44.24-7.75L44.24-7.75Q45.15-7.75 45.9-7.5L45.9-7.5ZM67.49-7.5L67.99-2.2Q69.04-1.7 70.12-1.5 71.19-1.3 72.54-1.3L72.54-1.3Q74.59-1.3 76.19-2.2 77.79-3.1 77.79-5.1L77.79-5.1Q77.79-6.15 77.22-7.05 76.64-7.95 75.22-8.9 73.79-9.85 71.14-11.05L71.14-11.05Q68.24-12.4 66.64-14.18 65.04-15.95 65.04-19.1L65.04-19.1Q65.04-21.65 66.32-23.13 67.59-24.6 69.62-25.25 71.64-25.9 73.89-25.9L73.89-25.9Q75.84-25.9 77.77-25.53 79.69-25.15 81.19-24.5L81.19-24.5Q81.19-24.25 81.22-23.95 81.24-23.65 81.24-23.4L81.24-23.4Q81.24-20.35 80.29-17.65L80.29-17.65Q80.09-17.6 79.92-17.57 79.74-17.55 79.54-17.55L79.54-17.55Q78.79-17.55 78.04-17.85L78.04-17.85 77.24-23.25Q76.59-23.45 75.74-23.58 74.89-23.7 74.04-23.7L74.04-23.7Q72.89-23.7 71.77-23.38 70.64-23.05 69.92-22.28 69.19-21.5 69.19-20.1L69.19-20.1Q69.19-19.15 69.62-18.3 70.04-17.45 71.32-16.53 72.59-15.6 75.14-14.35L75.14-14.35Q79.14-12.45 80.77-10.68 82.39-8.9 82.39-6.25L82.39-6.25Q82.39-3.7 81.04-2.1 79.69-0.5 77.52 0.25 75.34 1 72.89 1L72.89 1Q70.54 1 68.52 0.63 66.49 0.25 64.44-1L64.44-1 64.44-1.85Q64.44-3.2 64.62-4.63 64.79-6.05 65.34-7.7L65.34-7.7Q65.64-7.75 65.84-7.75L65.84-7.75Q66.74-7.75 67.49-7.5L67.49-7.5ZM89.69 13.45L89.69 13.45Q88.84 12.15 87.97 10.45 87.09 8.75 86.84 7.05L86.84 7.05Q87.14 6.8 87.72 6.58 88.29 6.35 88.74 6.35L88.74 6.35 91.94 10.1Q93.29 8.8 94.72 6.18 96.14 3.55 97.39 0.2L97.39 0.2 88.29-22.5 84.44-23.5Q84.29-24.45 84.69-25.25L84.69-25.25Q86.04-25.2 87.62-25.1 89.19-25 90.59-25L90.59-25Q92.04-25 93.72-25.1 95.39-25.2 96.79-25.25L96.79-25.25Q96.94-24.3 96.69-23.5L96.69-23.5Q95.79-23.3 94.92-23.1 94.04-22.9 93.24-22.5L93.24-22.5 97.39-12.45Q97.64-11.85 98.14-10.63 98.64-9.4 99.14-7.85 99.64-6.3 99.94-4.7L99.94-4.7 100.09-4.7Q100.39-5.85 100.74-7.38 101.09-8.9 102.04-11.35L102.04-11.35 106.29-22.5 102.84-23.5Q102.69-24.45 103.09-25.25L103.09-25.25Q104.44-25.2 105.52-25.1 106.59-25 107.99-25L107.99-25Q109.44-25 110.44-25.1 111.44-25.2 112.84-25.25L112.84-25.25Q112.99-24.3 112.74-23.5L112.74-23.5Q111.84-23.3 110.92-23.1 109.99-22.9 109.29-22.5L109.29-22.5 99.49 2.35Q98.19 5.65 96.59 8.15 94.99 10.65 93.24 12.05 91.49 13.45 89.69 13.45Z" fill="white"></path></g></svg></g></svg></g></svg></g></svg></g><g><svg viewBox="0 0 234.8334632452997 234.83346324529967" height="234.83346324529967" width="234.8334632452997"><g><svg></svg></g><g id="SvgjsG3292"><svg viewBox="0 0 234.8334632452997 234.83346324529967" height="234.83346324529967" width="234.8334632452997"><g><path transform="scale(2.34833,2.34833)" d="M30 100c-16.569 0-30-13.431-30-30v-40c0-16.569 13.431-30 30-30h40c16.569 0 30 13.431 30 30v40c0 16.569-13.431 30-30 30z" fill="black" fill-rule="nonzero" stroke="none" stroke-width="1" stroke-linecap="butt" stroke-linejoin="miter" stroke-miterlimit="10" stroke-dasharray="" stroke-dashoffset="0" font-family="none" font-weight="none" font-size="none" text-anchor="none" style="mix-blend-mode: normal"></path></g><g transform="matrix(1,0,0,1,46.96669264905995,60.75607439992294)"><svg viewBox="0 0 140.9000779471798 113.3213144454538" height="113.3213144454538" width="140.9000779471798"><g><svg xmlns="http://www.w3.org/2000/svg" xmlns:xlink="http://www.w3.org/1999/xlink" version="1.1" x="0" y="0" viewBox="0 9.786 100.00034525290005 80.42699999999999" enable-background="new 0 0 100 100" xml:space="preserve" id="SvgjsSvg3291" width="140.9000779471798" height="113.3213144454538" class="icon-dxe-0" data-fill-palette-color="quaternary"><path d="M49.942 52.994L90.595 51.529C88.068 47.352 87.436 43.698 82.606 43.068 75.377 42.128 68.148 41.185 60.918 40.242L18.843 34.762C20.101 36.792 39.724 53.361 49.942 52.994" fill="black"></path><path d="M0 9.786C4.391 17.043 26.615 32.858 32.953 33.672 50.283 35.903 67.61 38.132 84.939 40.36 81.546 34.753 80.759 31.01 74.627 29.401L47.91 22.378C31.94 18.182 15.97 13.984 0 9.786" fill="black"></path><path d="M63.108 66.207L94.349 59.547C92.321 56.201 92.315 54.188 88.522 54.358 82.364 54.631 76.208 54.907 70.051 55.18 58.708 55.686 47.365 56.194 36.023 56.698 37.298 58.064 54.94 67.947 63.108 66.207" fill="black"></path><path d="M87.682 90.213C93.407 86.494 94.944 82.492 98.201 76.406 101.852 69.582 99.458 68.562 95.38 61.81 94.963 61.122 89.538 62.042 88.927 62.714 88.182 63.532 88.679 68.169 88.633 69.21z" fill="black"></path><path d="M86.35 63.447C82.555 64.256 77.746 63.638 76.778 67.676L72.658 84.887C81.904 82.678 86.028 71.582 86.35 63.447" fill="black"></path><path d="M74.666 66.121C65.518 68.074 65.71 70.732 61.787 79.301 68.007 78.711 73.811 71.941 74.666 66.121" fill="black"></path></svg></g></svg></g></svg></g></svg></g></svg></g><defs><mask></mask></defs></svg><rect width="395.52" height="138.53204900775717" fill="black" stroke="none" visibility="hidden"></rect></g></mask><linearGradient x1="0" x2="1" y1="0.5" y2="0.5" id="12e018f5-7bab-48e0-9e30-2b10f375671c"><stop stop-color="#f00b51" offset="0"></stop><stop stop-color="#730062" offset="1"></stop></linearGradient><rect width="395.52" height="138.53204900775717" fill="url(#12e018f5-7bab-48e0-9e30-2b10f375671c)" mask="url(#9290b675-e8d2-4376-b8c1-a1a7467697fa)" data-fill-palette-color="primary"></rect><mask id="5efbf1f6-6422-4bb9-bc15-0fa522eb436c"><g id="SvgjsG3308"><svg viewBox="0 0 395.52 138.53204900775717" height="138.53204900775717" width="395.52"><g><svg viewBox="0 0 670.4681844240965 234.83346324529967" height="138.53204900775717" width="395.52"><g transform="matrix(1,0,0,1,274.9481844240966,32.455276034625356)"><svg viewBox="0 0 395.52 169.92291117604896" height="169.92291117604896" width="395.52"><g id="SvgjsG3307"><svg viewBox="0 0 395.52 169.92291117604896" height="169.92291117604896" width="395.52" id="SvgjsSvg3306"><g><svg viewBox="0 0 395.52 169.92291117604896" height="169.92291117604896" width="395.52"><g transform="matrix(1,0,0,1,0,0)"><svg width="395.52" viewBox="-0.45 -35.25 113.34625 48.7" height="169.92291117604896" data-palette-color="url(#12e018f5-7bab-48e0-9e30-2b10f375671c)"><g class="wordmark-text-0" data-fill-palette-color="primary" id="SvgjsG3305"></g></svg></g></svg></g></svg></g></svg></g><g><svg viewBox="0 0 234.8334632452997 234.83346324529967" height="234.83346324529967" width="234.8334632452997"><g><svg></svg></g><g id="SvgjsG3304"><svg viewBox="0 0 234.8334632452997 234.83346324529967" height="234.83346324529967" width="234.8334632452997"><g><path transform="scale(2.34833,2.34833)" d="M30 100c-16.569 0-30-13.431-30-30v-40c0-16.569 13.431-30 30-30h40c16.569 0 30 13.431 30 30v40c0 16.569-13.431 30-30 30z" fill="white" fill-rule="nonzero" stroke="none" stroke-width="1" stroke-linecap="butt" stroke-linejoin="miter" stroke-miterlimit="10" stroke-dasharray="" stroke-dashoffset="0" font-family="none" font-weight="none" font-size="none" text-anchor="none" style="mix-blend-mode: normal"></path></g><g transform="matrix(1,0,0,1,46.96669264905995,60.75607439992294)"><svg viewBox="0 0 140.9000779471798 113.3213144454538" height="113.3213144454538" width="140.9000779471798"><g><svg xmlns="http://www.w3.org/2000/svg" xmlns:xlink="http://www.w3.org/1999/xlink" version="1.1" x="0" y="0" viewBox="0 9.786 100.00034525290005 80.42699999999999" enable-background="new 0 0 100 100" xml:space="preserve" id="SvgjsSvg3303" width="140.9000779471798" height="113.3213144454538" class="icon-dxe-0" data-fill-palette-color="quaternary"><path d="M49.942 52.994L90.595 51.529C88.068 47.352 87.436 43.698 82.606 43.068 75.377 42.128 68.148 41.185 60.918 40.242L18.843 34.762C20.101 36.792 39.724 53.361 49.942 52.994" fill="black"></path><path d="M0 9.786C4.391 17.043 26.615 32.858 32.953 33.672 50.283 35.903 67.61 38.132 84.939 40.36 81.546 34.753 80.759 31.01 74.627 29.401L47.91 22.378C31.94 18.182 15.97 13.984 0 9.786" fill="black"></path><path d="M63.108 66.207L94.349 59.547C92.321 56.201 92.315 54.188 88.522 54.358 82.364 54.631 76.208 54.907 70.051 55.18 58.708 55.686 47.365 56.194 36.023 56.698 37.298 58.064 54.94 67.947 63.108 66.207" fill="black"></path><path d="M87.682 90.213C93.407 86.494 94.944 82.492 98.201 76.406 101.852 69.582 99.458 68.562 95.38 61.81 94.963 61.122 89.538 62.042 88.927 62.714 88.182 63.532 88.679 68.169 88.633 69.21z" fill="black"></path><path d="M86.35 63.447C82.555 64.256 77.746 63.638 76.778 67.676L72.658 84.887C81.904 82.678 86.028 71.582 86.35 63.447" fill="black"></path><path d="M74.666 66.121C65.518 68.074 65.71 70.732 61.787 79.301 68.007 78.711 73.811 71.941 74.666 66.121" fill="black"></path></svg></g></svg></g></svg></g></svg></g></svg></g><defs><mask></mask></defs><mask><g id="SvgjsG3302"><svg viewBox="0 0 395.52 138.53204900775717" height="138.53204900775717" width="395.52"><g><svg viewBox="0 0 670.4681844240965 234.83346324529967" height="138.53204900775717" width="395.52"><g transform="matrix(1,0,0,1,274.9481844240966,32.455276034625356)"><svg viewBox="0 0 395.52 169.92291117604896" height="169.92291117604896" width="395.52"><g id="SvgjsG3301"><svg viewBox="0 0 395.52 169.92291117604896" height="169.92291117604896" width="395.52" id="SvgjsSvg3300"><g><svg viewBox="0 0 395.52 169.92291117604896" height="169.92291117604896" width="395.52"><g transform="matrix(1,0,0,1,0,0)"><svg width="395.52" viewBox="-0.45 -35.25 113.34625 48.7" height="169.92291117604896" data-palette-color="url(#12e018f5-7bab-48e0-9e30-2b10f375671c)"><g class="wordmark-text-0" data-fill-palette-color="primary" id="SvgjsG3299"><path d="M5.55-6.95L5.55-32.5 1.7-33.5Q1.55-34.45 1.95-35.25L1.95-35.25Q3.3-35.2 4.98-35.1 6.65-35 8.05-35L8.05-35Q9.5-35 11.5-35.1 13.5-35.2 14.9-35.25L14.9-35.25Q15.05-34.3 14.8-33.5L14.8-33.5Q13.8-33.35 12.8-33.15 11.8-32.95 10.8-32.5L10.8-32.5 10.8-6.95Q10.8-2.55 8.25 0.38 5.7 3.3 0.55 5.3L0.55 5.3Q0.2 5.25-0.13 4.83-0.45 4.4-0.45 4.05L-0.45 4.05Q5.55 0.95 5.55-6.95L5.55-6.95ZM23.35-13.5L23.35-12.5Q23.35-7.45 25.37-4.67 27.4-1.9 30.9-1.9L30.9-1.9Q32.45-1.9 33.5-2.08 34.55-2.25 35.57-2.75 36.6-3.25 37.9-4.15L37.9-4.15Q38.7-3.8 38.8-2.95L38.8-2.95Q37.25-1.15 35.1-0.15 32.95 0.85 30.75 0.85L30.75 0.85Q26.95 0.85 24.1-0.75 21.25-2.35 19.65-5.35 18.05-8.35 18.05-12.5L18.05-12.5Q18.05-16.75 19.72-19.73 21.4-22.7 24.22-24.28 27.05-25.85 30.5-25.85L30.5-25.85Q34.95-25.85 37.07-22.88 39.2-19.9 39.2-15.2L39.2-15.2Q39.2-14.85 39.2-14.55 39.2-14.25 39.15-13.9L39.15-13.9 38.45-13.35 23.35-13.5ZM30.45-23.7L30.45-23.7Q29-23.7 27.57-22.8 26.15-21.9 25.05-20.1 23.95-18.3 23.55-15.55L23.55-15.55 34.45-16.15Q34.45-20 33.62-21.85 32.8-23.7 30.45-23.7ZM45.9-7.5L46.4-2.2Q47.45-1.7 48.52-1.5 49.59-1.3 50.95-1.3L50.95-1.3Q53-1.3 54.59-2.2 56.2-3.1 56.2-5.1L56.2-5.1Q56.2-6.15 55.62-7.05 55.05-7.95 53.62-8.9 52.2-9.85 49.55-11.05L49.55-11.05Q46.65-12.4 45.05-14.18 43.45-15.95 43.45-19.1L43.45-19.1Q43.45-21.65 44.72-23.13 46-24.6 48.02-25.25 50.05-25.9 52.3-25.9L52.3-25.9Q54.25-25.9 56.17-25.53 58.09-25.15 59.59-24.5L59.59-24.5Q59.59-24.25 59.62-23.95 59.64-23.65 59.64-23.4L59.64-23.4Q59.64-20.35 58.7-17.65L58.7-17.65Q58.5-17.6 58.32-17.57 58.14-17.55 57.95-17.55L57.95-17.55Q57.2-17.55 56.45-17.85L56.45-17.85 55.65-23.25Q55-23.45 54.15-23.58 53.3-23.7 52.45-23.7L52.45-23.7Q51.3-23.7 50.17-23.38 49.05-23.05 48.32-22.28 47.59-21.5 47.59-20.1L47.59-20.1Q47.59-19.15 48.02-18.3 48.45-17.45 49.72-16.53 51-15.6 53.55-14.35L53.55-14.35Q57.55-12.45 59.17-10.68 60.8-8.9 60.8-6.25L60.8-6.25Q60.8-3.7 59.45-2.1 58.09-0.5 55.92 0.25 53.75 1 51.3 1L51.3 1Q48.95 1 46.92 0.63 44.9 0.25 42.84-1L42.84-1 42.84-1.85Q42.84-3.2 43.02-4.63 43.2-6.05 43.74-7.7L43.74-7.7Q44.05-7.75 44.24-7.75L44.24-7.75Q45.15-7.75 45.9-7.5L45.9-7.5ZM67.49-7.5L67.99-2.2Q69.04-1.7 70.12-1.5 71.19-1.3 72.54-1.3L72.54-1.3Q74.59-1.3 76.19-2.2 77.79-3.1 77.79-5.1L77.79-5.1Q77.79-6.15 77.22-7.05 76.64-7.95 75.22-8.9 73.79-9.85 71.14-11.05L71.14-11.05Q68.24-12.4 66.64-14.18 65.04-15.95 65.04-19.1L65.04-19.1Q65.04-21.65 66.32-23.13 67.59-24.6 69.62-25.25 71.64-25.9 73.89-25.9L73.89-25.9Q75.84-25.9 77.77-25.53 79.69-25.15 81.19-24.5L81.19-24.5Q81.19-24.25 81.22-23.95 81.24-23.65 81.24-23.4L81.24-23.4Q81.24-20.35 80.29-17.65L80.29-17.65Q80.09-17.6 79.92-17.57 79.74-17.55 79.54-17.55L79.54-17.55Q78.79-17.55 78.04-17.85L78.04-17.85 77.24-23.25Q76.59-23.45 75.74-23.58 74.89-23.7 74.04-23.7L74.04-23.7Q72.89-23.7 71.77-23.38 70.64-23.05 69.92-22.28 69.19-21.5 69.19-20.1L69.19-20.1Q69.19-19.15 69.62-18.3 70.04-17.45 71.32-16.53 72.59-15.6 75.14-14.35L75.14-14.35Q79.14-12.45 80.77-10.68 82.39-8.9 82.39-6.25L82.39-6.25Q82.39-3.7 81.04-2.1 79.69-0.5 77.52 0.25 75.34 1 72.89 1L72.89 1Q70.54 1 68.52 0.63 66.49 0.25 64.44-1L64.44-1 64.44-1.85Q64.44-3.2 64.62-4.63 64.79-6.05 65.34-7.7L65.34-7.7Q65.64-7.75 65.84-7.75L65.84-7.75Q66.74-7.75 67.49-7.5L67.49-7.5ZM89.69 13.45L89.69 13.45Q88.84 12.15 87.97 10.45 87.09 8.75 86.84 7.05L86.84 7.05Q87.14 6.8 87.72 6.58 88.29 6.35 88.74 6.35L88.74 6.35 91.94 10.1Q93.29 8.8 94.72 6.18 96.14 3.55 97.39 0.2L97.39 0.2 88.29-22.5 84.44-23.5Q84.29-24.45 84.69-25.25L84.69-25.25Q86.04-25.2 87.62-25.1 89.19-25 90.59-25L90.59-25Q92.04-25 93.72-25.1 95.39-25.2 96.79-25.25L96.79-25.25Q96.94-24.3 96.69-23.5L96.69-23.5Q95.79-23.3 94.92-23.1 94.04-22.9 93.24-22.5L93.24-22.5 97.39-12.45Q97.64-11.85 98.14-10.63 98.64-9.4 99.14-7.85 99.64-6.3 99.94-4.7L99.94-4.7 100.09-4.7Q100.39-5.85 100.74-7.38 101.09-8.9 102.04-11.35L102.04-11.35 106.29-22.5 102.84-23.5Q102.69-24.45 103.09-25.25L103.09-25.25Q104.44-25.2 105.52-25.1 106.59-25 107.99-25L107.99-25Q109.44-25 110.44-25.1 111.44-25.2 112.84-25.25L112.84-25.25Q112.99-24.3 112.74-23.5L112.74-23.5Q111.84-23.3 110.92-23.1 109.99-22.9 109.29-22.5L109.29-22.5 99.49 2.35Q98.19 5.65 96.59 8.15 94.99 10.65 93.24 12.05 91.49 13.45 89.69 13.45Z" fill="black"></path></g></svg></g></svg></g></svg></g></svg></g><g><svg viewBox="0 0 234.8334632452997 234.83346324529967" height="234.83346324529967" width="234.8334632452997"><g><svg></svg></g><g id="SvgjsG3298"><svg viewBox="0 0 234.8334632452997 234.83346324529967" height="234.83346324529967" width="234.8334632452997"><g><path transform="scale(2.34833,2.34833)" d="M30 100c-16.569 0-30-13.431-30-30v-40c0-16.569 13.431-30 30-30h40c16.569 0 30 13.431 30 30v40c0 16.569-13.431 30-30 30z" fill="black" fill-rule="nonzero" stroke="none" stroke-width="1" stroke-linecap="butt" stroke-linejoin="miter" stroke-miterlimit="10" stroke-dasharray="" stroke-dashoffset="0" font-family="none" font-weight="none" font-size="none" text-anchor="none" style="mix-blend-mode: normal"></path></g><g transform="matrix(1,0,0,1,46.96669264905995,60.75607439992294)"><svg viewBox="0 0 140.9000779471798 113.3213144454538" height="113.3213144454538" width="140.9000779471798"><g><svg xmlns="http://www.w3.org/2000/svg" xmlns:xlink="http://www.w3.org/1999/xlink" version="1.1" x="0" y="0" viewBox="0 9.786 100.00034525290005 80.42699999999999" enable-background="new 0 0 100 100" xml:space="preserve" id="SvgjsSvg3297" width="140.9000779471798" height="113.3213144454538" class="icon-dxe-0" data-fill-palette-color="quaternary"><path d="M49.942 52.994L90.595 51.529C88.068 47.352 87.436 43.698 82.606 43.068 75.377 42.128 68.148 41.185 60.918 40.242L18.843 34.762C20.101 36.792 39.724 53.361 49.942 52.994" fill="black"></path><path d="M0 9.786C4.391 17.043 26.615 32.858 32.953 33.672 50.283 35.903 67.61 38.132 84.939 40.36 81.546 34.753 80.759 31.01 74.627 29.401L47.91 22.378C31.94 18.182 15.97 13.984 0 9.786" fill="black"></path><path d="M63.108 66.207L94.349 59.547C92.321 56.201 92.315 54.188 88.522 54.358 82.364 54.631 76.208 54.907 70.051 55.18 58.708 55.686 47.365 56.194 36.023 56.698 37.298 58.064 54.94 67.947 63.108 66.207" fill="black"></path><path d="M87.682 90.213C93.407 86.494 94.944 82.492 98.201 76.406 101.852 69.582 99.458 68.562 95.38 61.81 94.963 61.122 89.538 62.042 88.927 62.714 88.182 63.532 88.679 68.169 88.633 69.21z" fill="black"></path><path d="M86.35 63.447C82.555 64.256 77.746 63.638 76.778 67.676L72.658 84.887C81.904 82.678 86.028 71.582 86.35 63.447" fill="black"></path><path d="M74.666 66.121C65.518 68.074 65.71 70.732 61.787 79.301 68.007 78.711 73.811 71.941 74.666 66.121" fill="black"></path></svg></g></svg></g></svg></g></svg></g></svg></g><defs><mask></mask></defs></svg><rect width="395.52" height="138.53204900775717" fill="black" stroke="none" visibility="hidden"></rect></g></mask></svg><rect width="395.52" height="138.53204900775717" fill="black" stroke="none" visibility="hidden"></rect></g></mask><linearGradient x1="0" x2="1" y1="0.5" y2="0.5" id="a8b73bf0-2f41-4863-b196-d24d911c0ee4"><stop stop-color="#f00b51" offset="0"></stop><stop stop-color="#730062" offset="1"></stop></linearGradient><rect width="395.52" height="138.53204900775717" fill="url(#a8b73bf0-2f41-4863-b196-d24d911c0ee4)" mask="url(#5efbf1f6-6422-4bb9-bc15-0fa522eb436c)" data-fill-palette-color="accent"></rect></svg><rect width="395.52" height="138.53204900775717" fill="none" stroke="none" visibility="hidden"></rect></g></svg></g></svg>